<svg width="345" height="351" viewBox="0 0 345 351" fill="none" xmlns="http://www.w3.org/2000/svg">
<path d="M124.884 70.4902C120.991 72.9 121.399 75.3839 125.514 74.2717C126.997 73.8638 129.778 73.7528 131.743 74.0122C134.56 74.3831 135.339 74.2717 135.709 73.3079C137.044 69.8602 129.222 67.8212 124.884 70.4902Z" fill="#CA5B5B"/>
<path d="M160.399 70.2675C157.433 72.5289 159.139 74.012 164.737 74.049C167.591 74.086 170.52 74.3455 171.224 74.6793C173.486 75.7175 172.782 72.4179 170.372 70.7124C167.851 68.9332 162.513 68.6734 160.399 70.2675Z" fill="#CA5B5B"/>
<path d="M126.848 78.3867C119.804 81.5009 121.065 93.6609 128.368 93.6609H130.333L127.998 96.5896C126.292 98.6656 125.551 100.482 125.291 103.077L124.958 106.636L127.441 101.817C135.449 86.0608 161.697 86.3576 167.777 102.225C168.555 104.301 169.297 105.339 169.742 104.894C170.743 103.893 169.223 99.1846 166.961 96.1818C165.441 94.1798 165.293 93.6609 166.22 93.6609C172.522 93.6609 175.377 84.8745 170.631 80.0922C165.256 74.7165 157.767 78.6461 158.694 86.3576C159.102 89.8793 159.065 89.9537 157.507 89.101C154.69 87.6179 143.494 87.3954 139.49 88.7301C137.525 89.3974 135.82 89.9537 135.709 89.9537C135.597 89.9537 135.82 89.0266 136.265 87.9147C138.6 81.7603 132.706 75.7918 126.848 78.3867ZM133.188 81.3898C134.597 83.058 133.818 85.134 131.816 85.134C129.48 85.134 128.146 83.058 129.48 81.5009C130.667 80.0182 132.038 79.9808 133.188 81.3898ZM165.071 81.3898C166.479 83.058 165.701 85.134 163.699 85.134C161.363 85.134 160.028 83.058 161.363 81.5009C162.549 80.0182 163.921 79.9808 165.071 81.3898Z" fill="#CA5B5B"/>
<path d="M139.415 93.6238C134.114 96.8491 136.45 103.04 143.901 105.487C146.2 106.266 146.274 106.414 145.866 109.417C144.865 117.017 131.445 116.387 129.183 108.638C128.331 105.746 126.292 105.709 125.958 108.564C125.216 114.941 137.525 120.316 144.643 116.683C147.794 115.089 152.502 116.349 152.502 118.833C152.502 119.501 153.021 120.798 153.688 121.725C157.433 127.027 165.107 123.986 165.107 117.165C165.107 115.571 165.663 114.162 166.664 113.235C168.851 111.233 169.704 109.417 169.185 107.711C168.629 105.969 166.59 105.784 166.59 107.452C166.59 110.937 157.989 115.83 153.725 114.755C148.573 113.458 146.793 106.636 151.316 105.413C155.802 104.227 159.509 99.2219 158.323 95.9963C156.914 92.2152 144.309 90.621 139.415 93.6238ZM154.245 95.1066C155.394 96.2558 152.688 96.9975 147.164 96.9975C141.566 96.9975 139.119 95.7369 142.196 94.4392C144.272 93.5495 153.17 94.0317 154.245 95.1066ZM162.92 118.158C162.92 119.597 161.173 122.564 157.985 121.725C154.475 119.744 155.242 116.906 157.985 117.276C159.653 117.536 160.073 117.684 160.629 116.683C161.667 114.755 162.92 115.637 162.92 118.158Z" fill="#CA5B5B"/>
<path d="M115.059 96.293C113.428 96.886 112.019 97.3679 111.908 97.3679C111.797 97.3679 111.723 97.8498 111.723 98.4431C111.723 100.371 116.913 101.409 120.101 100.074C126.033 97.5903 121.324 94.0686 115.059 96.293Z" fill="#CA5B5B"/>
<path d="M174.265 95.8481C172.004 96.8119 171.596 97.8127 172.93 99.1474C174.895 101.112 183.644 100.371 183.644 98.2576C183.644 96.4784 176.934 94.7359 174.265 95.8481Z" fill="#CA5B5B"/>
<path d="M63.5273 104.857C63.5273 108.342 71.016 115.163 74.8346 115.163C78.7642 115.163 85.289 110.344 86.1788 106.785L86.6977 104.708L84.5107 106.933C78.9866 112.42 68.7546 111.53 64.899 105.19L63.5273 102.929V104.857Z" fill="#CA5B5B"/>
<path d="M189.577 127.768C188.168 128.658 191.208 128.658 194.025 127.768C195.731 127.212 195.657 127.175 193.284 127.101C191.875 127.064 190.207 127.36 189.577 127.768Z" fill="#CA5B5B"/>
<path d="M91.7939 182.046C93.0915 185.197 95.0565 185.382 98.2447 182.639L100.84 180.414L98.3558 181.23C96.3538 181.898 95.39 181.823 93.351 180.859L90.8301 179.673L91.7939 182.046Z" fill="#CA5B5B"/>
<path d="M144.414 200.843C144.414 201.64 146.867 203.078 147.966 202.929C148.939 202.795 150.609 201.484 150.736 200.783C150.863 199.904 150.503 200.06 149.087 201.506L147.924 202.698L146.169 201.409L144.414 200.12V200.843Z" fill="#CA5B5B"/>
<path d="M72.1283 177.965C69.8299 191.237 70.9051 207.104 74.1303 207.104C74.5382 207.104 74.2787 206.437 73.5744 205.658C71.7205 203.582 71.424 199.43 72.3508 186.751C73.1295 175.666 73.0551 172.7 72.1283 177.965Z" fill="#CA5B5B"/>
<path d="M94.3723 107.823C94.1869 108.379 93.668 110.084 93.1861 111.567C92.0739 115.2 88.6258 119.908 85.8084 121.539C83.584 122.874 82.3608 127.768 84.2884 127.768C84.6962 127.768 85.2151 129.029 85.4746 130.548C86.1049 134.404 89.8494 136.406 92.4814 134.256C94.1499 132.921 93.6306 131.512 91.5176 131.475C90.7022 131.475 84.2884 125.506 84.2884 124.765C84.2884 123.912 90.8132 120.057 94.8912 118.5C97.9684 117.35 98.4133 116.906 98.0054 115.608C97.709 114.755 97.0786 112.642 96.5967 110.937C95.5956 107.378 94.8542 106.34 94.3723 107.823Z" fill="#CA5B5B"/>
<path d="M184.249 223.21L180.9 226.559L182.134 227.793L182.839 225.678L184.249 223.21Z" fill="#CA5B5B"/>
<path d="M195.353 227.616L192.004 230.965L193.238 232.199L193.943 230.084L195.353 227.616Z" fill="#CA5B5B"/>
<path fill-rule="evenodd" clip-rule="evenodd" d="M142.97 46.5166C142.97 45.4044 143.193 43.8103 143.415 42.9205L143.86 41.3264L147.679 42.8465C153.314 45.145 159.32 49.297 160.914 52.0033C163.138 55.7478 165.511 55.8962 169.218 52.4482C174.705 47.3694 190.498 43.4024 192.982 46.4426C193.427 46.9985 195.466 48.3332 197.505 49.4084C206.551 54.0797 210.554 67.9078 205.698 77.769C204.66 79.9564 203.77 82.7741 203.77 84.0714C203.77 87.4451 199.618 91.8569 196.467 91.8569C194.094 91.8569 193.427 92.5612 194.946 93.488C198.543 95.7125 200.174 109.948 196.726 109.096C195.021 108.651 194.946 108.799 195.354 110.875C196.318 115.769 193.13 122.442 190.72 120.44C189.682 119.588 189.571 119.699 189.793 121.256C190.016 122.701 190.831 123.258 194.131 124.258C199.506 125.853 205.994 128.707 205.994 129.449C205.994 130.338 200.841 134.194 197.097 136.085L193.76 137.79L197.727 139.718C201.879 141.757 201.99 142.091 200.471 146.836C200.1 147.948 200.508 148.615 202.065 149.542C203.214 150.247 207.477 153.954 211.555 157.81C216.708 162.629 219.785 164.964 221.491 165.372C230.685 167.374 234.058 174.604 229.017 181.425C227.719 183.167 227.608 183.835 228.312 185.132C229.758 187.876 228.275 196.884 226.347 196.884C224.234 196.884 224.568 198.59 227.867 204.596C229.875 208.318 230.857 210.001 230.374 210.863C229.938 211.641 228.309 211.75 225.161 212.084L220.23 212.603L218.97 215.866C218.117 218.09 217.19 219.276 216.041 219.573C214.781 219.869 214.225 220.685 213.891 222.539C213.298 226.32 210.777 229.916 207.663 231.51C206.143 232.252 203.992 233.512 202.88 234.217C200.767 235.626 199.099 235.626 188.57 234.143C183.491 233.438 181.489 232.511 179.45 229.879C178.634 228.878 177.411 228.026 176.744 228.026C173.667 228.026 167.439 222.761 167.439 220.166C167.439 218.943 166.697 218.943 159.431 220.129L154.018 220.982L150.496 227.469L146.974 233.957L143.675 227.321L143.612 227.194C140.375 220.685 140.357 220.648 137.521 220.648C129.698 220.574 112.163 215.68 103.451 211.157L98.4087 208.525L98.8907 205.671C99.4469 202.371 99.3725 202.334 96.1103 204.262C91.7728 206.82 87.6204 207.376 86.7677 205.485C85.9523 203.743 85.9523 203.743 84.3952 209.452C82.4672 216.57 76.2392 219.61 70.6411 216.162C66.7115 213.715 65.7474 210.713 65.8958 201.222C66.0442 193.844 65.8958 192.881 64.6355 192.213C61.8918 190.767 53.2539 181.017 53.2539 179.386C53.2539 179.163 54.4031 177.606 55.8492 175.938L58.4071 172.935L56.924 170.526C51.4003 161.591 54.9224 147.466 63.8198 142.758C67.1564 141.015 67.3415 140.756 67.3415 137.827C67.3415 135.418 67.6383 134.713 68.8245 134.379C71.6049 133.675 70.9376 126.075 67.9718 124.555C58.926 119.847 57.5544 112.358 61.0764 86.9632C63.6343 68.4267 63.6713 68.2783 65.9698 68.0189C68.1942 67.7594 68.8245 73.1721 68.8245 92.5242C68.8245 109.652 70.3816 105.314 71.4198 85.295C72.2352 68.983 72.4577 67.8708 74.7561 67.8708C77.24 67.8708 77.277 68.0189 78.5377 88.4462C79.4274 102.348 80.6881 107.835 80.6881 97.6401C80.6881 94.8597 80.9105 87.0372 81.17 80.2902L81.6519 67.9818L83.5795 67.6484C84.2567 67.513 84.7319 67.3371 85.1136 67.4573C86.1959 67.7982 86.5294 70.5147 88.5846 83.256C91.7355 102.83 91.9579 111.431 89.363 117.104C87.6575 120.811 83.5054 124.963 81.5405 124.963C80.1688 124.963 80.4282 133.786 81.7999 134.342C82.5046 134.602 82.9121 135.751 82.9121 137.494C82.9121 140.089 83.1346 140.311 86.6566 141.831C89.7338 143.129 90.6236 143.944 91.6614 146.428C93.8118 151.618 95.7764 149.802 94.4418 143.87C93.9599 141.757 94.0713 141.572 97.6674 140.2C99.9264 139.321 101.093 138.876 101.129 138.353C101.168 137.795 99.9179 137.147 97.3335 135.788C87.0645 130.412 87.398 129.152 100.337 124.963C104.971 123.463 106.218 123.066 106.343 122.444C106.391 122.205 106.274 121.933 106.12 121.552C105.86 120.811 105.453 120.662 104.971 121.144C102.895 123.221 99.8174 118.438 99.7434 112.951C99.7064 109.874 99.4839 109.43 98.3717 109.8C95.4059 110.727 95.7394 102.497 98.8907 96.2684C101.041 92.0423 98.5882 91.9214 97.1055 91.9214C94.4418 90.0774 93.2926 87.5565 93.2926 85.7029C93.2926 84.8501 92.8107 83.4041 92.2547 82.4773C91.6614 81.5875 90.6606 77.6949 89.9933 73.8394C89.326 69.9098 88.2508 66.2393 87.5834 65.498C85.0625 62.6806 94.4418 48.5926 98.8536 48.5926C99.3725 48.5926 100.596 47.9253 101.634 47.1099C106.491 43.2914 120.541 46.7761 126.584 53.338C127.585 54.3762 128.994 55.2659 129.735 55.2659C130.374 55.2659 130.763 55.2772 130.917 55.0928C131.156 54.8062 130.829 54.0476 129.995 52.0407C128.771 49.1119 128.512 43.7363 129.55 43.0689C130.143 42.6981 136.149 44.9965 140.931 47.4804C142.896 48.4816 142.97 48.4816 142.97 46.5166ZM160.024 57.3419C160.024 56.1557 154.648 50.8541 151.201 48.6297C146.01 45.3304 145.566 45.7383 148.198 51.4844C149.94 55.34 149.644 55.9703 147.048 53.9313C145.009 52.3001 133.332 47.5918 132.775 48.1478C132.627 48.3332 133.109 49.9273 133.888 51.6698C135.408 55.0435 138.188 58.0833 139.004 57.2309C139.597 56.6746 141.488 58.1207 141.488 59.1585C141.488 59.8999 137.706 59.5664 134.258 58.5652C133.332 58.2687 132.59 58.3428 132.59 58.7136C132.627 60.1597 135.445 62.903 137.113 63.0511C139.893 63.3479 140.005 63.3849 140.005 64.1633C140.005 64.5712 138.855 64.905 137.484 64.905C134.703 64.905 130.365 61.9019 130.365 59.9742C130.365 58.0463 122.988 62.6062 118.02 67.6113C112.756 72.8756 108.604 80.5867 107.158 87.6675C106.639 90.1884 105.527 93.0431 104.674 93.9699C102.635 96.1944 101.856 97.7885 100.448 102.534C99.0761 107.205 99.4096 107.316 103.488 103.461C107.047 100.124 109.012 99.494 106.676 102.46C103.821 106.093 102.005 118.327 104.34 118.29C104.943 118.261 105.72 115.266 106.267 113.157C106.426 112.543 106.566 112.004 106.676 111.636C106.788 111.263 106.849 110.969 106.904 110.701C107.033 110.082 107.132 109.607 107.751 108.651C108.9 106.877 109.468 107.758 108.863 110.402C108.615 111.488 108.606 112.542 108.808 113.562V113.575L108.863 113.908V114.249C108.863 117.586 111.681 123.962 114.165 126.149L115.759 127.558L115.277 125.111C114.832 122.739 114.906 122.776 119.021 127.187C121.32 129.671 124.174 132.229 125.398 132.859L127.622 134.009L125.917 131.265L124.211 128.522L127.845 131.08C131.923 134.009 135.037 135.64 137.78 136.381C139.337 136.826 139.411 136.752 138.336 136.085C135.926 134.565 137.002 134.009 140.19 135.121C144.379 136.604 151.571 136.604 155.019 135.121C157.985 133.861 158.615 134.157 156.502 135.863C152.498 139.088 163.027 134.083 167.995 130.375C170.775 128.299 171.034 128.67 168.884 131.71C168.032 132.897 167.55 133.861 167.809 133.861C169.07 133.861 175.038 129.078 176.818 126.594C179.969 122.331 180.303 122.108 179.784 124.778C178.709 130.635 184.64 123.443 186.012 117.215C186.639 114.447 186.791 112.84 186.493 112.413L185.834 110.931L184.17 108.268C184 107.216 186.147 108.53 186.539 109.096C186.711 109.343 186.908 109.597 187.107 109.853C187.476 110.328 187.853 110.814 188.088 111.283C188.318 111.744 188.43 112.122 188.608 112.726C188.703 113.047 188.817 113.432 188.978 113.927C189.682 115.161 190.424 116.547 190.424 117.178C190.424 117.845 190.757 118.178 191.165 117.919C193.315 116.584 190.98 104.054 188.274 102.385C187.309 101.792 187.161 100.495 188.088 100.495C188.422 100.495 190.164 101.866 191.944 103.498C193.76 105.166 195.317 106.167 195.466 105.759C196.059 104.017 193.167 96.5279 190.943 93.9699C189.608 92.4499 188.422 90.2258 188.274 89.0022C186.939 76.5087 171.665 58.7877 161.618 58.0463C160.728 57.9723 160.024 57.6384 160.024 57.3419ZM123.025 55.1545C121.283 53.6348 118.094 51.7069 115.907 50.8915C113.72 50.0757 110.161 49.1859 108.01 48.9635L104.044 48.4816L105.786 50.0387L107.529 51.5584H104.303C101.041 51.5958 95.4059 53.6718 94.4418 55.2289C94.0713 55.8219 94.5162 55.9333 95.9989 55.5624C98.0753 55.0435 98.0753 55.0805 94.9981 58.4172C89.8079 64.0893 89.326 68.9456 93.0701 77.213L94.1083 79.5485L96.1103 77.5465C97.2225 76.4347 98.5572 75.3965 99.0761 75.2111C99.8545 74.9516 99.8918 74.3957 99.2615 72.7642C98.7796 71.5409 98.6682 69.5019 99.002 67.9818C99.2985 66.4991 99.4469 64.8306 99.3355 64.2747C99.2245 63.7184 99.4469 63.459 99.8174 63.7184C100.188 63.9409 101.152 63.4219 101.893 62.5692C105.156 58.9361 110.494 58.0833 115.166 60.4562C116.904 61.3339 117.785 61.8042 118.665 61.8003C119.643 61.7961 120.618 61.2056 122.766 59.9372L126.176 57.9352L123.025 55.1545ZM188.051 51.5584L189.793 50.1127L191.536 48.6297L189.311 48.667C183.194 48.7781 175.891 51.5214 171.517 55.377L168.847 57.6758L172.777 60.0853L176.707 62.4581L178.857 60.9751C186.383 55.7108 196.059 61.1975 195.836 70.6141C195.725 74.3583 195.799 74.5437 197.653 74.5437C198.728 74.5437 200.174 75.1 200.952 75.7673C202.732 77.3985 202.954 77.0646 203.807 71.5779C204.771 65.6464 203.844 62.6062 199.803 58.4172L196.763 55.2289L199.284 55.7478C201.175 56.1187 201.657 56.0073 201.212 55.3029C200.211 53.6718 194.613 51.5958 191.276 51.5584H188.051ZM108.567 71.7264C112.719 69.057 115.796 64.6826 114.313 63.6074C109.642 60.1967 102.19 64.5712 102.19 70.7252C102.19 74.4327 106.75 79.0666 107.566 76.2122C107.788 75.5075 108.196 74.3213 108.493 73.6169C108.938 72.5791 108.752 72.3937 107.64 72.7642C106.899 73.0236 107.306 72.5417 108.567 71.7264ZM190.683 75.693C193.797 72.3567 192.833 65.498 188.978 63.459C187.161 62.4581 182.305 62.4951 180.562 63.496C179.376 64.2003 179.561 64.5712 182.342 67.7224C184.01 69.6503 186.123 72.6902 187.05 74.5067L188.755 77.8063L190.683 75.693ZM79.4274 106.278C77.6109 106.093 77.277 105.648 76.7951 102.719C76.4987 100.866 75.9797 93.7105 75.6829 86.7777C75.053 73.135 74.0888 76.3973 73.9778 92.6353C73.8664 103.757 73.3104 106.019 70.6781 106.241C66.6745 106.612 66.6371 106.389 66.0812 90.0774L65.5623 74.9146L63.8938 89.0022C60.965 113.619 62.3737 119.513 71.7163 122.368C73.4215 122.887 73.4588 123.072 73.051 128.373L72.6431 133.861H74.8305H76.9806V128.448V123.035L79.5385 122.108C85.7669 119.847 88.5472 113.545 87.8429 103.09C87.361 95.8979 84.5806 75.2111 83.9873 74.6551C83.8019 74.4697 83.6538 81.1426 83.6538 89.5211C83.6538 106.167 83.5054 106.76 79.4274 106.278ZM192.018 88.0754C197.579 92.7467 204.586 84.5537 200.026 78.7331C198.469 76.7682 196.356 76.1008 196.356 77.5465C196.356 77.9544 196.837 78.4737 197.393 78.6961C200.915 80.0678 199.877 87.0002 196.022 87.7789C192.315 88.4833 190.424 81.9214 193.538 79.0296C194.909 77.732 194.946 77.5095 193.909 77.5095C189.756 77.5095 188.385 85.0726 192.018 88.0754ZM102.414 79.0285C102.952 78.8925 103.34 78.7941 103.34 78.6961C103.34 78.4363 101.041 77.5465 100.522 77.5839C93.6634 77.9914 94.4781 90.3273 101.373 90.3273C105.604 89.2697 106.068 80.8617 105.78 80.2902C105.732 80.1943 105.625 80.5522 105.443 81.1627C104.853 83.146 103.467 87.7958 100.707 88.2122C97.0371 86.7664 96.5552 82.9966 99.595 80.1788C100.24 79.5795 101.531 79.2527 102.414 79.0285ZM102.992 82.4822L102.991 82.4773C102.815 81.6714 102.19 81.4952 101.373 81.4952C98.9636 82.9409 98.1377 84.6647 100.14 85.7029C101.373 86.6068 102.769 85.4924 102.991 84.4916C103.213 83.4926 103.167 83.2842 102.992 82.4822ZM194.724 84.9242C196.207 84.9242 198.061 82.8481 197.616 81.6989C197.134 80.4753 195.54 80.0678 194.613 80.9576C193.909 81.6619 194.02 84.9242 194.724 84.9242ZM201.026 129.931C200.693 129.746 198.098 128.856 195.243 127.966C192.389 127.076 189.645 126.223 189.163 126.075C186.531 125.26 185.011 132.526 187.235 135.269L188.681 137.049L195.132 133.638C198.691 131.785 201.323 130.116 201.026 129.931ZM105.23 136.455C108.085 137.531 110.05 131.562 108.085 127.892C107.01 125.853 98.2974 127.41 95.2575 130.153C94.7016 130.672 101.856 135.158 105.23 136.455ZM181.637 129.412C166.289 141.646 141.08 144.13 122.432 135.269C119.911 134.083 116.129 131.747 114.053 130.079C109.605 126.594 110.272 129.56 114.758 133.341C130.106 146.28 166.03 145.983 180.599 132.822C184.64 129.189 185.493 126.297 181.637 129.412ZM78.8715 142.795C79.9093 143.648 80.0207 143.388 79.7983 140.496L79.5758 137.197L74.9416 136.975L70.3076 136.752L70.3446 139.199C70.3446 141.386 70.4557 141.498 71.3454 140.348C72.7541 138.457 77.7219 138.531 77.7219 140.459C77.7219 141.201 78.2412 142.276 78.8715 142.795ZM107.38 139.866C107.38 141.275 112.904 146.725 114.016 146.354C114.461 146.206 113.164 144.426 111.125 142.424C108.9 140.237 107.38 139.199 107.38 139.866ZM181.007 146.169C181.637 146.799 184.788 144.5 186.605 142.017C187.643 140.608 187.903 139.792 187.309 139.829C186.123 139.829 180.414 145.613 181.007 146.169ZM103.34 144.13C104.934 143.574 105.86 142.758 105.749 142.091C105.416 140.496 104.377 140.496 100.967 142.091L97.9268 143.462L101.004 151.099C104.415 159.404 106.342 163.111 105.564 159.812C105.304 158.773 104.897 156.29 104.637 154.288C104.34 151.915 103.525 149.913 102.45 148.727C100.077 146.169 100.262 145.242 103.34 144.13ZM197.801 143.425L194.428 141.98C190.35 140.237 189.682 140.2 189.682 141.683C189.682 142.313 190.868 143.314 192.315 143.944C194.539 144.871 194.872 145.316 194.465 146.688C193.686 149.097 193.538 149.134 191.313 146.984C188.866 144.611 188.088 144.537 186.457 146.354C183.825 149.246 186.123 152.36 188.978 149.765C190.387 148.504 190.424 148.504 190.424 150.803C190.424 152.1 190.72 153.138 191.091 153.138C191.462 153.138 191.276 154.695 190.72 156.586C189.386 161.035 189.793 161.48 191.536 157.402C192.186 155.794 193.72 152.386 195.002 149.539C195.109 149.301 195.214 149.067 195.317 148.838L197.801 143.425ZM119.911 151.248C128.549 149.654 130.328 147.021 125.731 142.721C122.951 140.126 121.246 140.867 116.686 146.539C114.175 149.691 112.887 151.258 113.239 151.848C113.599 152.453 115.674 152.035 119.911 151.248ZM182.268 151.878C182.268 151.173 176.299 143.24 174.964 142.202C173.111 140.719 170.627 141.127 168.958 143.24C165.993 147.021 167.401 149.765 172.814 150.803C178.968 151.989 182.268 152.323 182.268 151.878ZM88.6216 157.142C90.6236 154.399 89.8449 148.801 87.0645 146.021C83.0235 141.98 81.4294 143.24 84.3952 148.097C85.1736 149.431 86.2488 152.323 86.7307 154.51C87.5464 158.069 87.7318 158.366 88.6216 157.142ZM71.6049 172.898C84.2098 174.455 89.0291 153.361 77.7963 145.909C65.7103 137.902 52.735 155.437 60.3721 169.45C63.8198 175.79 68.8245 178.682 68.8245 174.307C68.8245 172.713 69.084 172.602 71.6049 172.898ZM107.455 149.431C109.086 149.431 109.16 149.134 108.085 147.17C107.232 145.501 106.194 145.316 105.712 146.65C105.156 148.171 105.934 149.431 107.455 149.431ZM150.051 157.587C152.98 150.358 153.091 149.32 151.312 147.8C149.273 146.058 147.864 145.798 145.454 146.836C141.636 148.43 141.673 149.097 146.678 161.665L147.53 163.89L150.051 157.587ZM103.85 170.837C103.528 168.367 102.599 165.977 101.041 161.406C99.1501 155.845 97.519 151.173 97.4079 151.062C97.0741 150.728 92.5512 156.104 92.5512 156.808C92.5512 157.179 91.6614 158.514 90.5862 159.812C88.3992 162.444 88.9551 163.482 92.5882 163.519C95.443 163.519 101.449 165.743 101.449 166.781C101.449 167.263 99.9658 169.117 98.1123 170.933C96.0733 172.935 94.7756 174.863 94.7756 175.938C94.7756 180.239 88.1767 189.47 85.0995 189.47C84.5436 189.47 84.3582 191.583 84.5062 196.143C84.8031 203.817 85.5444 204.41 90.6236 200.962C93.7374 198.849 94.6272 198.59 93.2926 200.221C91.9953 201.815 93.441 201.667 96.9257 199.887L99.7434 198.442L101.301 190.063C103.457 178.414 104.334 174.537 103.85 170.837ZM211.592 162.814C208.701 160.034 204.586 156.216 202.435 154.325L202.41 154.302C198.023 150.469 197.985 150.436 197.282 152.212C190.313 170.377 188.829 184.613 194.576 178.274C196.318 176.346 200.026 174.381 200.693 175.011C200.952 175.271 200.1 176.457 198.765 177.644C197.261 178.984 196.483 179.661 196.605 180.072C196.732 180.501 197.843 180.64 200.137 180.943C206.031 181.759 214.855 186.578 219.192 191.323C222.937 195.401 223.789 195.475 223.789 191.583C223.789 190.767 224.123 190.323 224.531 190.582C225.717 191.323 225.383 187.468 224.049 184.428C222.863 181.833 222.789 181.796 222.529 183.538C221.936 187.357 221.268 187.505 220.824 183.909C220.305 179.423 220.416 179.126 222.306 179.608C223.122 179.831 223.567 180.313 223.307 180.721C223.085 181.128 223.604 181.091 224.494 180.609C225.346 180.128 226.384 178.978 226.718 178.051C227.496 176.012 226.829 170.044 225.902 170.637C224.086 171.749 216.597 167.671 211.592 162.814ZM139.782 156.104C138.892 156.104 135.333 155.437 131.849 154.584C128.401 153.769 124.953 152.916 124.248 152.693C123.544 152.471 122.951 152.656 122.951 153.064C122.951 154.139 131.774 156.734 137.558 157.328C141.191 157.698 142.303 157.587 141.932 156.957C141.636 156.475 140.672 156.104 139.782 156.104ZM155.019 157.587C159.839 157.587 172.629 154.251 172.629 152.99C172.629 152.323 170.886 152.175 170.256 152.767C170.034 152.99 166.178 153.954 161.618 154.881C152.869 156.66 150.644 157.587 155.019 157.587ZM115.425 160.849C118.28 158.477 120.43 156.253 120.245 155.919C119.503 154.695 117.909 155.585 112.348 160.294L106.602 165.187L119.763 178.645L132.961 192.065L132.738 202.816C132.59 208.711 132.367 213.678 132.182 213.827C130.959 215.087 104.415 206.449 104.415 204.818C104.452 204.336 104.785 201.741 105.156 199.109C108.789 174.937 109.16 171.675 108.27 171.675C107.936 171.675 106.75 177.087 105.638 183.723C104.489 190.36 103.154 198.034 102.598 200.814L101.634 205.819L104.934 207.784C109.197 210.268 118.725 213.493 126.287 215.05C129.55 215.717 132.961 216.422 133.888 216.644L135.556 217.052V204.447V191.842L132.108 187.876C130.18 185.688 124.471 179.72 119.429 174.567L110.235 165.224L115.425 160.849ZM185.196 162.258C183.38 160.627 180.859 158.366 179.561 157.328C177.226 155.363 174.853 154.732 174.853 156.067C174.853 156.438 175.298 157.031 175.854 157.365C176.41 157.698 178.634 159.552 180.822 161.517L184.751 165.076L174.001 175.975C164.626 185.479 161.172 188.515 159.926 192.281C159.019 195.023 159.282 198.153 159.282 204.447C159.282 216.199 159.357 217.015 160.58 216.496C161.284 216.199 162.953 215.791 164.287 215.606C166.03 215.347 166.697 214.865 166.697 213.864C166.697 212.715 166.4 212.603 164.806 213.196C163.731 213.604 162.73 213.938 162.582 213.938C162.396 213.938 162.248 208.97 162.248 202.927V191.917L164.51 189.025C165.733 187.431 171.628 181.462 177.597 175.716L188.496 165.298L185.196 162.258ZM130.074 165.2C129.436 163.065 128.951 161.442 128.771 160.812C128.401 159.478 127.474 158.329 126.658 158.106C124.879 157.661 124.805 158.292 126.362 161.888C127.956 165.632 133.332 181.499 133.294 182.426C133.294 182.834 130.81 180.498 127.808 177.236C124.805 173.973 122.098 171.526 121.802 171.823C121.505 172.12 123.581 174.641 126.362 177.421C129.179 180.239 132.59 183.835 133.925 185.429L136.334 188.358L135.889 185.762C135.667 184.317 134.11 178.645 132.442 173.158C131.601 170.313 130.751 167.468 130.074 165.2ZM162.434 181.017C161.989 180.572 167.476 164.89 169.403 161.109C171.146 157.624 171.034 157.29 168.106 158.069C167.401 158.255 166.4 160.145 165.696 162.629C165.029 164.964 163.62 169.673 162.582 173.121C159.468 183.649 158.43 188.766 159.876 186.504C160.543 185.466 163.917 181.722 167.364 178.163C170.812 174.604 173.333 171.675 172.925 171.675C172.517 171.675 170.071 173.825 167.476 176.457C164.843 179.126 162.582 181.165 162.434 181.017ZM145.195 164.816C143.897 161.888 143.564 161.628 140.227 161.22C138.262 160.961 135.593 160.516 134.258 160.219C133.184 159.985 132.509 159.762 132.221 160.002C131.735 160.408 132.358 162.144 134.036 167.411C138.966 183.019 139.411 185.392 139.782 199.591L140.153 213.048L142.044 214.049C144.972 215.606 152.164 215.31 154.129 213.53C155.649 212.158 155.724 211.639 155.39 202.075C154.982 189.729 156.984 178.756 162.582 162.851L163.731 159.626L161.359 160.108C160.061 160.368 157.243 160.775 155.13 161.035C151.497 161.443 151.201 161.628 150.162 164.372C148.865 167.634 149.087 167.782 152.424 165.743C153.759 164.927 155.242 164.26 155.724 164.26C156.205 164.26 154.611 165.447 152.201 166.929L147.79 169.599L143.119 167.152C140.523 165.78 138.818 164.52 139.263 164.372C139.708 164.223 141.339 164.964 142.859 166.04C146.603 168.635 146.826 168.487 145.195 164.816ZM117.168 167.078C119.837 169.747 124.323 166.262 121.765 163.445C120.356 161.851 119.466 161.739 117.575 162.851C116.092 163.704 115.87 165.78 117.168 167.078ZM172.851 166.781C174.89 169.562 179.932 166.596 178.116 163.704C177.003 161.962 174.556 161.702 173.073 163.148C171.628 164.631 171.591 165.076 172.851 166.781ZM83.1719 173.677C83.8393 174.307 86.6196 169.932 87.0645 167.486C87.324 166.077 87.324 164.742 87.0645 164.483C86.8421 164.223 86.6196 164.52 86.6196 165.15C86.6196 165.743 85.7669 167.856 84.7287 169.821C83.6909 171.749 82.9865 173.491 83.1719 173.677ZM98.0009 166.855L95.8138 166.374C93.1075 165.817 89.5854 165.632 89.5854 166.077C89.5854 166.966 92.1433 171.675 92.6252 171.675C92.9221 171.675 94.2567 170.6 95.5914 169.265L98.0009 166.855ZM188.941 180.535C188.941 179.683 188.57 177.532 188.125 175.716C187.087 171.712 185.493 170.192 186.235 173.973C186.516 175.276 186.898 177.514 187.158 179.038L187.198 179.275C187.68 182.204 188.941 183.13 188.941 180.535ZM90.1787 178.941C91.476 177.644 91.2906 174.122 89.8819 173.603C86.4342 172.268 82.2822 176.198 84.4322 178.756C85.5074 180.053 88.9551 180.165 90.1787 178.941ZM80.7621 192.176C80.3172 184.243 79.9463 177.087 79.9463 176.235C79.9463 174.529 79.6129 174.418 77.3514 175.382C76.5357 175.716 74.8305 176.049 73.5699 176.087L71.2714 176.124L70.4187 184.836C69.9368 189.618 69.4919 197.144 69.3808 201.593L69.1954 209.6L71.6049 211.788C74.5707 214.42 76.4616 214.494 78.8341 212.158C81.5034 209.489 81.6519 207.821 80.7621 192.176ZM63.6343 184.28C65.4879 184.28 66.8226 180.943 65.4509 179.794C63.7084 178.348 58.4071 177.606 57.9622 178.756C57.4803 179.942 61.9292 184.28 63.6343 184.28ZM84.3582 186.356C84.8771 186.541 86.5082 185.466 87.9913 183.983C91.2906 180.684 90.8831 180.572 86.6566 183.686C84.8031 185.058 83.8393 186.207 84.3582 186.356ZM192.463 191.805C194.391 193.733 199.21 190.397 198.172 187.839C197.95 187.319 196.244 185.762 194.354 184.354L190.98 181.87L191.313 186.43C191.499 188.914 192.018 191.36 192.463 191.805ZM210.814 189.136C214.521 190.693 210.147 187.319 206.18 185.577C201.768 183.649 196.356 182.463 196.356 183.464C196.356 183.761 199.284 185.021 202.843 186.245C206.402 187.505 209.998 188.803 210.814 189.136ZM126.436 200.184C125.769 199.924 122.358 196.254 118.836 191.991C115.314 187.764 112.348 184.28 112.274 184.28C109.975 184.28 111.088 186.689 116.167 192.621C119.281 196.291 122.58 200.184 123.47 201.259C124.99 203.076 125.138 203.113 126.362 201.926C127.548 200.74 127.548 200.592 126.436 200.184ZM187.458 186.875L185.79 186.43C182.601 185.614 177.819 185.021 177.819 185.429C177.819 186.245 182.49 192.436 183.12 192.436C183.417 192.436 184.529 191.175 185.567 189.655L187.458 186.875ZM65.9328 189.47C67.2675 189.47 66.5261 188.209 64.7095 187.357C63.6714 186.875 62.5962 186.504 62.2997 186.541C61.5583 186.578 65.1544 189.47 65.9328 189.47ZM174.186 190.953C173.741 190.953 173.37 191.36 173.37 191.88C173.333 192.51 173.111 192.436 172.666 191.731C172.073 190.767 171.887 190.804 171.479 191.88C171.22 192.584 170.701 192.992 170.33 192.769C169.96 192.547 169.885 192.881 170.108 193.511C170.367 194.141 170.219 195.105 169.774 195.661C168.995 196.588 169.144 199.591 170.034 200.481C170.293 200.74 170.775 200.443 171.146 199.813C171.517 199.22 172.11 198.738 172.406 198.701C175.372 198.59 177.522 194.178 175.001 193.362C174.556 193.214 174.371 192.584 174.593 192.028C174.816 191.435 174.631 190.953 174.186 190.953ZM206.291 195.735C207.477 200.443 211.963 199.813 214.484 194.586L216.226 190.953L213.52 191.064C207.44 191.286 205.475 192.547 206.291 195.735ZM219.118 197.292C222.306 201.111 223.493 200.406 220.49 196.477C219.415 195.068 218.006 193.919 217.413 193.919C216.671 193.919 217.227 195.031 219.118 197.292ZM216.375 213.901C216.375 207.858 207.477 199.628 197.171 196.18C191.721 194.326 183.639 194.104 182.268 195.772C181.452 196.736 181.897 196.884 185.604 196.884C197.542 196.884 213.038 205.967 214.632 213.901C215.225 216.83 216.375 216.83 216.375 213.901ZM211.629 217.571C212.26 212.863 207.292 207.339 198.802 203.335C189.831 199.109 184.788 198.849 181.675 202.371C174.705 210.342 173.407 223.577 179.45 225.468C180.34 225.764 181.712 226.765 182.453 227.692C184.047 229.768 188.274 231.251 191.202 230.843C192.389 230.658 193.464 230.843 193.575 231.214C193.946 232.252 200.026 231.955 201.434 230.843C202.102 230.324 203.918 229.249 205.438 228.47C208.59 226.876 210.925 222.798 211.629 217.571ZM221.528 209.489C227.126 209.452 227.719 208.414 224.271 204.707C221.454 201.778 220.712 201.555 219.007 203.224C216.523 205.708 218.043 209.489 221.528 209.489ZM172.814 217.83C172.443 212.826 172.814 211.38 176.188 204.855C176.966 203.298 174.705 204.633 172.74 206.894C169.144 210.972 168.81 216.274 171.813 220.871L173.185 222.947L172.814 217.83ZM148.383 220.834C147.642 220.314 146.715 219.647 146.307 219.314C143.601 217.052 142.896 218.016 144.564 221.649C145.677 224.096 147.493 224.726 148.717 223.058C149.532 221.946 149.495 221.612 148.383 220.834Z" fill="#CA5B5B"/>
<path d="M143.681 173.06C143.794 173.195 143.873 173.304 143.918 173.387C143.963 173.47 143.986 173.549 143.986 173.624C143.986 173.714 143.925 173.82 143.805 173.94C143.692 174.06 143.579 174.12 143.467 174.12C143.316 174.12 143.196 174.098 143.106 174.053C143.015 174.007 142.94 173.936 142.88 173.838C142.76 173.658 142.613 173.504 142.44 173.376C142.267 173.24 141.996 173.173 141.628 173.173C141.312 173.173 140.951 173.244 140.545 173.387C140.146 173.53 139.861 173.707 139.688 173.917C139.537 174.105 139.406 174.391 139.293 174.775C139.187 175.158 139.135 175.53 139.135 175.891C139.135 176.327 139.229 176.73 139.417 177.098C139.612 177.459 139.891 177.749 140.252 177.967C140.62 178.185 141.06 178.294 141.571 178.294C141.85 178.294 142.135 178.242 142.429 178.136C142.729 178.023 142.989 177.843 143.207 177.595H143.196C143.331 177.452 143.5 177.38 143.704 177.38C143.824 177.38 143.937 177.433 144.042 177.538C144.155 177.644 144.211 177.749 144.211 177.854C144.211 177.967 144.192 178.069 144.155 178.159C144.125 178.242 144.064 178.335 143.974 178.441C143.666 178.787 143.301 179.024 142.88 179.151C142.459 179.279 141.955 179.343 141.368 179.343C140.849 179.343 140.323 179.219 139.789 178.971C139.263 178.723 138.857 178.422 138.571 178.069C138.42 177.85 138.274 177.538 138.131 177.132C137.995 176.719 137.928 176.384 137.928 176.128C137.928 175.474 138.025 174.853 138.221 174.267C138.424 173.673 138.725 173.199 139.124 172.846C139.387 172.605 139.767 172.424 140.263 172.304C140.759 172.184 141.214 172.124 141.628 172.124C142.132 172.124 142.526 172.195 142.812 172.338C143.106 172.473 143.395 172.714 143.681 173.06ZM150.49 177.38C150.49 177.734 150.414 178.02 150.264 178.238C150.114 178.456 149.854 178.67 149.486 178.881C149.238 179.031 148.952 179.148 148.629 179.23C148.305 179.306 147.978 179.343 147.647 179.343C147.444 179.343 147.207 179.306 146.937 179.23C146.673 179.148 146.459 179.069 146.293 178.994L146.101 178.824C145.763 178.546 145.526 178.324 145.391 178.159C145.263 177.986 145.199 177.775 145.199 177.527C145.199 177.331 145.244 177.185 145.335 177.087C145.425 176.989 145.572 176.94 145.775 176.94C145.88 176.94 145.978 176.974 146.068 177.042C146.158 177.11 146.237 177.204 146.305 177.324C146.493 177.655 146.714 177.899 146.97 178.057C147.233 178.208 147.542 178.283 147.895 178.283C148.226 178.283 148.561 178.181 148.899 177.978C149.178 177.805 149.317 177.636 149.317 177.471C149.317 177.177 149.185 176.933 148.922 176.737C148.666 176.542 148.298 176.365 147.816 176.207C147.523 176.102 147.083 175.906 146.497 175.621C146.098 175.425 145.801 175.185 145.605 174.899C145.41 174.613 145.312 174.312 145.312 173.996C145.312 173.71 145.41 173.432 145.605 173.161C145.808 172.883 146.053 172.676 146.339 172.541C146.489 172.466 146.73 172.387 147.061 172.304C147.391 172.214 147.639 172.169 147.805 172.169C148.113 172.169 148.38 172.206 148.606 172.281C148.832 172.349 149.053 172.447 149.272 172.575C149.602 172.763 149.847 172.932 150.005 173.082C150.163 173.233 150.242 173.421 150.242 173.646C150.242 173.782 150.189 173.902 150.084 174.007C149.986 174.113 149.813 174.165 149.565 174.165C149.505 174.165 149.444 174.139 149.384 174.086C149.324 174.034 149.249 173.955 149.159 173.849C149.038 173.692 148.922 173.586 148.809 173.534C148.779 173.526 148.655 173.477 148.437 173.387C148.226 173.297 147.963 173.252 147.647 173.252C147.346 173.252 147.079 173.323 146.846 173.466C146.613 173.601 146.497 173.801 146.497 174.064C146.497 174.327 146.733 174.542 147.207 174.707C147.711 174.902 148.128 175.072 148.459 175.214C148.798 175.357 149.125 175.526 149.441 175.722C149.802 175.94 150.065 176.169 150.23 176.41C150.403 176.651 150.49 176.974 150.49 177.38ZM157.264 173.06C157.377 173.195 157.456 173.304 157.501 173.387C157.546 173.47 157.569 173.549 157.569 173.624C157.569 173.714 157.509 173.82 157.388 173.94C157.275 174.06 157.163 174.12 157.05 174.12C156.9 174.12 156.779 174.098 156.689 174.053C156.598 174.007 156.523 173.936 156.463 173.838C156.418 173.771 156.313 173.684 156.147 173.579C155.982 173.466 155.794 173.372 155.583 173.297C155.373 173.214 155.177 173.173 154.997 173.173C154.703 173.173 154.399 173.244 154.083 173.387C153.775 173.522 153.527 173.699 153.338 173.917C153.18 174.113 153.038 174.406 152.91 174.797C152.782 175.181 152.718 175.545 152.718 175.891C152.718 176.327 152.812 176.73 153 177.098C153.196 177.459 153.474 177.749 153.835 177.967C154.203 178.185 154.643 178.294 155.155 178.294C155.433 178.294 155.67 178.253 155.865 178.17C156.068 178.087 156.287 177.967 156.52 177.809C156.7 177.696 156.839 177.613 156.937 177.561C157.042 177.508 157.159 177.482 157.287 177.482C157.407 177.482 157.52 177.534 157.625 177.64C157.738 177.745 157.794 177.85 157.794 177.956C157.794 178.151 157.678 178.347 157.445 178.542C157.159 178.775 156.896 178.952 156.655 179.073C156.414 179.185 156.166 179.26 155.91 179.298C155.662 179.328 155.343 179.343 154.951 179.343C154.433 179.343 153.906 179.219 153.372 178.971C152.846 178.723 152.44 178.422 152.154 178.069C152.004 177.85 151.857 177.538 151.714 177.132C151.579 176.719 151.511 176.384 151.511 176.128C151.511 175.489 151.62 174.872 151.838 174.278C152.056 173.684 152.368 173.207 152.774 172.846C153.045 172.597 153.38 172.417 153.778 172.304C154.184 172.184 154.576 172.124 154.951 172.124C155.433 172.124 155.847 172.202 156.192 172.36C156.546 172.518 156.903 172.751 157.264 173.06Z" fill="#CA5B5B"/>
<path d="M146 251.588C210.346 251.588 262.509 199.425 262.509 135.079C262.509 70.7326 210.346 18.5696 146 18.5696C81.6532 18.5696 29.4902 70.7326 29.4902 135.079C29.4902 199.425 81.6532 251.588 146 251.588Z" stroke="#CA5B5B" stroke-width="4"/>
<path d="M30.2406 209.946C27.9616 210.53 25.9201 210.352 24.1162 209.413C22.3437 208.482 20.8963 206.997 19.7738 204.959C18.6969 203.003 18.1737 201.056 18.2044 199.115C18.2467 197.196 18.8164 195.383 19.9134 193.676C21.0105 191.968 22.6247 190.47 24.7561 189.18C26.8871 187.89 28.9321 187.174 30.891 187.031C32.8497 186.888 34.6324 187.278 36.2392 188.199C37.8569 189.141 39.1986 190.58 40.2643 192.515C41.0127 193.874 41.5017 195.225 41.7319 196.568C41.9621 197.91 41.9106 199.204 41.5775 200.449C41.2443 201.694 40.571 202.856 39.5572 203.936L35.8634 201.026C36.94 199.962 37.5312 198.918 37.6369 197.893C37.7741 196.877 37.5481 195.834 36.9587 194.763C36.3576 193.672 35.5747 192.883 34.6098 192.397C33.6562 191.931 32.5479 191.792 31.2845 191.981C30.0411 192.157 28.6754 192.695 27.1878 193.596C25.7202 194.484 24.5869 195.445 23.7884 196.477C23.0097 197.497 22.5644 198.563 22.4523 199.673C22.3719 200.793 22.6377 201.908 23.2497 203.02C23.8508 204.111 24.6524 204.861 25.655 205.27C26.6689 205.699 27.8583 205.693 29.2233 205.251L30.2406 209.946Z" fill="#CA5B5B"/>
<path d="M45.0861 210.29C46.125 211.685 46.7631 213.15 47 214.685C47.2369 216.221 47.0528 217.722 46.4476 219.189C45.8564 220.675 44.8157 222.029 43.3245 223.25C41.8337 224.471 40.3295 225.202 38.8115 225.444C37.3077 225.705 35.8736 225.529 34.5097 224.916C33.1454 224.304 31.944 223.3 30.9048 221.906C29.8655 220.512 29.2274 219.047 28.9906 217.511C28.7537 215.975 28.938 214.474 29.543 213.007C30.1482 211.54 31.1963 210.196 32.6871 208.975C34.178 207.754 35.6751 207.013 37.179 206.752C38.6829 206.491 40.1169 206.667 41.4812 207.28C42.8451 207.892 44.0469 208.896 45.0861 210.29ZM42.3043 212.569C41.8126 211.909 41.2207 211.468 40.5283 211.247C39.8684 211.028 39.1217 211.048 38.2887 211.305C37.4698 211.582 36.5786 212.114 35.6148 212.904C34.6514 213.693 33.9428 214.471 33.4891 215.237C33.0492 216.022 32.8412 216.784 32.8652 217.524C32.9212 218.267 33.1948 218.968 33.6865 219.627C34.192 220.306 34.7748 220.754 35.4351 220.972C36.1133 221.175 36.8691 221.148 37.7018 220.891C38.5531 220.618 39.4514 220.095 40.3968 219.32C41.3603 218.531 42.0618 217.744 42.5018 216.959C42.9414 216.174 43.1402 215.419 43.0982 214.695C43.0746 213.956 42.8099 213.247 42.3043 212.569Z" fill="#CA5B5B"/>
<path d="M39.752 232.279L41.8537 229.997L53.2928 228.7L55.992 228.577L53.9872 226.647L49.33 221.932L51.7184 219.339L62.1228 229.873L60.021 232.155L48.6789 233.45L45.8827 233.575L48.1103 235.73L52.7925 240.47L50.4042 243.064L39.752 232.279Z" fill="#CA5B5B"/>
<path d="M78.2908 242.523L62.2763 253.699C60.9307 254.652 59.7124 255.318 58.6217 255.696C57.5493 256.09 56.5118 256.185 55.51 255.982C54.5264 255.794 53.5207 255.308 52.4923 254.525C51.763 253.97 51.1598 253.377 50.6818 252.748C50.2041 252.118 49.8481 251.478 49.6133 250.827L52.4225 248.628C52.5396 249.16 52.7448 249.626 53.0384 250.027C53.3507 250.442 53.7593 250.842 54.2641 251.226C54.8811 251.696 55.4514 251.924 55.9753 251.91C56.4995 251.896 57.0875 251.665 57.7404 251.218L59.0807 250.335L60.1686 245.365L63.5401 231.287L67.8307 234.556L64.2984 245.279L63.0318 248.652L65.9334 246.259L74.3929 239.554L78.2908 242.523Z" fill="#CA5B5B"/>
<path d="M105.001 249.071C106.933 249.808 108.504 250.798 109.714 252.039C110.954 253.266 111.855 254.754 112.417 256.502L108.939 258.569C108.462 257.08 107.789 255.867 106.92 254.932C106.058 253.975 104.947 253.237 103.586 252.717C102.707 252.382 101.94 252.228 101.285 252.254C100.637 252.258 100.108 252.421 99.6978 252.742C99.2955 253.042 99.0096 253.435 98.8401 253.924C98.6088 254.59 98.6656 255.214 99.0096 255.799C99.3541 256.382 99.9928 256.978 100.926 257.586L104.434 259.943C106.351 261.227 107.6 262.534 108.183 263.863C108.796 265.178 108.833 266.612 108.293 268.166C107.792 269.609 106.987 270.71 105.878 271.469C104.799 272.214 103.505 272.612 101.994 272.664C100.492 272.694 98.8954 272.387 97.2047 271.742C95.7773 271.197 94.4998 270.508 93.3714 269.676C92.2651 268.851 91.3408 267.933 90.5981 266.92C89.8634 265.886 89.3092 264.832 88.9355 263.759L92.5041 261.538C92.7548 262.463 93.1461 263.342 93.6781 264.173C94.2319 265.013 94.9119 265.775 95.7185 266.46C96.555 267.132 97.4779 267.66 98.4879 268.045C99.3445 268.372 100.093 268.544 100.733 268.562C101.403 268.567 101.961 268.427 102.407 268.145C102.875 267.871 103.202 267.468 103.387 266.935C103.587 266.358 103.559 265.794 103.303 265.243C103.076 264.679 102.511 264.086 101.607 263.465L97.7599 260.904C96.6886 260.193 95.7876 259.422 95.0568 258.59C94.3482 257.766 93.8652 256.865 93.6079 255.887C93.3805 254.895 93.4669 253.822 93.8677 252.668C94.3225 251.358 95.0825 250.315 96.1475 249.54C97.2121 248.764 98.4964 248.324 100 248.219C101.533 248.1 103.2 248.384 105.001 249.071Z" fill="#CA5B5B"/>
<path d="M120.389 259.539C122.086 259.918 123.516 260.61 124.679 261.615C125.842 262.621 126.655 263.873 127.118 265.372C127.604 266.877 127.656 268.574 127.273 270.462C126.89 272.351 126.185 273.879 125.157 275.046C124.152 276.219 122.923 277.016 121.471 277.439C120.019 277.862 118.444 277.884 116.746 277.505C115.049 277.127 113.619 276.435 112.456 275.43C111.293 274.424 110.48 273.172 110.017 271.673C109.554 270.173 109.514 268.479 109.897 266.59C110.279 264.701 110.974 263.171 111.978 261.999C112.983 260.826 114.212 260.029 115.664 259.606C117.116 259.183 118.691 259.161 120.389 259.539ZM119.674 263.064C118.871 262.885 118.13 262.936 117.449 263.218C116.797 263.482 116.228 263.981 115.743 264.715C115.281 265.455 114.927 266.435 114.679 267.656C114.432 268.877 114.375 269.923 114.51 270.796C114.668 271.674 114.992 272.384 115.481 272.926C115.998 273.451 116.658 273.802 117.461 273.981C118.287 274.165 119.026 274.125 119.679 273.862C120.336 273.575 120.907 273.064 121.392 272.33C121.881 271.572 122.247 270.594 122.49 269.397C122.738 268.176 122.782 267.126 122.625 266.249C122.467 265.371 122.141 264.673 121.647 264.153C121.158 263.611 120.5 263.248 119.674 263.064Z" fill="#CA5B5B"/>
<path d="M138.913 262.189C140.484 262.304 141.792 262.636 142.839 263.184C143.886 263.732 144.7 264.416 145.282 265.236C145.886 266.058 146.285 266.971 146.477 267.975L141.868 269.263C141.73 268.169 141.408 267.332 140.905 266.753C140.426 266.176 139.705 265.853 138.744 265.782C137.9 265.72 137.16 265.878 136.522 266.255C135.885 266.633 135.386 267.221 135.027 268.019C134.667 268.817 134.446 269.838 134.363 271.081C134.28 272.324 134.376 273.368 134.649 274.213C134.923 275.057 135.351 275.701 135.933 276.145C136.516 276.588 137.218 276.84 138.038 276.9C138.718 276.95 139.3 276.874 139.784 276.674C140.294 276.452 140.705 276.117 141.017 275.669C141.353 275.223 141.603 274.663 141.765 273.992L146.029 275.754C145.749 276.77 145.23 277.663 144.472 278.432C143.739 279.179 142.807 279.736 141.676 280.1C140.568 280.467 139.287 280.597 137.834 280.49C136.053 280.36 134.507 279.881 133.196 279.054C131.908 278.23 130.935 277.11 130.275 275.695C129.616 274.28 129.35 272.61 129.479 270.688C129.607 268.765 130.091 267.151 130.932 265.846C131.773 264.541 132.874 263.573 134.235 262.942C135.62 262.313 137.179 262.062 138.913 262.189Z" fill="#CA5B5B"/>
<path d="M158.905 262.272L160.078 279.859L155.226 280.215L154.053 262.628L158.905 262.272ZM156.385 259.982C155.354 260.058 154.566 259.904 154.022 259.52C153.501 259.11 153.21 258.46 153.15 257.569C153.092 256.701 153.295 256.038 153.76 255.58C154.246 255.097 155.004 254.817 156.036 254.741C157.067 254.666 157.843 254.833 158.365 255.242C158.886 255.628 159.175 256.255 159.233 257.123C159.292 258.014 159.091 258.7 158.628 259.182C158.164 259.64 157.416 259.907 156.385 259.982Z" fill="#CA5B5B"/>
<path d="M178.101 265.429C177.905 264.461 177.487 263.76 176.848 263.325C176.226 262.861 175.468 262.729 174.574 262.929C173.702 263.123 173.001 263.508 172.47 264.083C171.94 264.659 171.642 265.496 171.576 266.594L167.34 266.274C167.394 264.649 167.981 263.23 169.102 262.017C170.223 260.805 171.896 259.95 174.121 259.455C175.635 259.117 176.992 259.068 178.191 259.306C179.385 259.521 180.376 260.035 181.164 260.846C181.975 261.652 182.523 262.758 182.808 264.163L184.23 271.177C184.412 272.075 184.904 272.435 185.707 272.256C185.891 272.215 186.072 272.163 186.251 272.098C186.452 272.029 186.617 271.957 186.746 271.88L187.059 274.843C186.812 275.043 186.512 275.218 186.158 275.369C185.805 275.52 185.388 275.649 184.906 275.756C184.126 275.93 183.39 275.962 182.696 275.852C182.021 275.713 181.443 275.409 180.964 274.938C180.503 274.438 180.184 273.751 180.007 272.876L179.951 272.6L180.576 272.316C180.676 273.28 180.493 274.152 180.028 274.93C179.562 275.708 178.926 276.355 178.12 276.872C177.309 277.365 176.422 277.719 175.458 277.934C173.807 278.302 172.371 278.201 171.153 277.629C169.957 277.053 169.203 275.994 168.89 274.451C168.642 273.23 168.813 272.121 169.402 271.123C169.991 270.125 171.033 269.291 172.527 268.621L178.715 265.797L179.283 268.596L175.494 270.307C174.747 270.642 174.199 271.016 173.852 271.431C173.504 271.846 173.394 272.364 173.52 272.986C173.641 273.584 173.941 273.999 174.419 274.229C174.921 274.455 175.504 274.493 176.169 274.345C176.628 274.243 177.063 274.086 177.476 273.873C177.883 273.638 178.22 273.346 178.485 272.998C178.769 272.622 178.96 272.207 179.06 271.751C179.177 271.267 179.175 270.726 179.054 270.127L178.101 265.429Z" fill="#CA5B5B"/>
<path d="M191.096 246.51L197.605 265.259C197.852 265.969 198.146 266.461 198.489 266.732C198.832 267.003 199.311 267.022 199.926 266.787C200.255 266.661 200.522 266.535 200.726 266.406C200.952 266.27 201.196 266.076 201.457 265.826L202.168 268.949C201.886 269.282 201.483 269.625 200.958 269.976C200.434 270.327 199.919 270.599 199.414 270.792C197.723 271.437 196.405 271.437 195.46 270.792C194.515 270.147 193.773 269.047 193.233 267.493L186.551 248.244L191.096 246.51Z" fill="#CA5B5B"/>
<path d="M238.7 239.187C239.457 241.473 239.464 243.607 238.723 245.588C237.988 247.536 236.695 249.214 234.844 250.624C233.068 251.977 231.251 252.756 229.393 252.961C227.554 253.151 225.771 252.783 224.043 251.856C222.315 250.929 220.742 249.442 219.323 247.395C217.904 245.347 217.041 243.319 216.734 241.309C216.428 239.3 216.645 237.408 217.386 235.634C218.145 233.845 219.404 232.281 221.162 230.943C222.395 230.003 223.644 229.332 224.908 228.93C226.172 228.528 227.414 228.423 228.633 228.616C229.852 228.809 231.022 229.364 232.143 230.281L229.682 234.458C228.571 233.474 227.522 232.989 226.533 233.005C225.549 232.987 224.571 233.348 223.599 234.089C222.608 234.843 221.922 235.75 221.541 236.807C221.179 237.851 221.142 239.014 221.432 240.299C221.709 241.563 222.343 242.91 223.334 244.34C224.311 245.75 225.327 246.805 226.384 247.506C227.427 248.187 228.485 248.517 229.557 248.498C230.634 248.445 231.677 248.034 232.687 247.264C233.678 246.51 234.325 245.589 234.628 244.502C234.951 243.4 234.841 242.171 234.3 240.812L238.7 239.187Z" fill="#CA5B5B"/>
<path d="M233.735 217.197L247.182 231.795C247.691 232.348 248.156 232.68 248.575 232.789C248.996 232.898 249.437 232.719 249.899 232.251C250.147 232 250.337 231.774 250.471 231.572C250.62 231.354 250.763 231.075 250.899 230.737L252.801 233.322C252.68 233.745 252.452 234.226 252.118 234.764C251.784 235.303 251.428 235.764 251.048 236.149C249.776 237.436 248.582 237.977 247.467 237.77C246.351 237.564 245.236 236.855 244.121 235.645L230.316 220.658L233.735 217.197Z" fill="#CA5B5B"/>
<path d="M262.281 223.172C261.593 224.096 260.812 224.791 259.937 225.258C259.062 225.724 258.109 225.885 257.076 225.737C256.058 225.571 254.968 225.011 253.804 224.058L244.75 216.642L247.657 212.741L255.811 219.42C256.756 220.194 257.606 220.587 258.36 220.597C259.109 220.574 259.814 220.119 260.474 219.233C260.769 218.838 260.977 218.401 261.098 217.924C261.22 217.447 261.233 216.957 261.139 216.455C261.058 215.934 260.847 215.412 260.505 214.889C260.163 214.366 259.692 213.859 259.092 213.367L251.701 207.314L254.608 203.413L268.244 214.582L265.653 218.059L263.114 216.162C263.489 216.954 263.711 217.758 263.778 218.571C263.841 219.351 263.748 220.125 263.498 220.891C263.249 221.658 262.843 222.418 262.281 223.172Z" fill="#CA5B5B"/>
<path d="M276.095 201.798C275.312 203.218 274.213 204.144 272.795 204.576C271.378 205.008 269.922 204.951 268.427 204.403L268.123 203.642L272.902 206.865L270.845 210.601L249.191 197.494L251.538 193.233L262.455 199.841L261.614 199.908C260.609 198.861 259.984 197.659 259.739 196.303C259.474 194.935 259.727 193.551 260.498 192.151C261.155 190.957 262.056 190.075 263.201 189.505C264.346 188.935 265.665 188.732 267.157 188.894C268.629 189.044 270.189 189.618 271.838 190.616C273.467 191.601 274.721 192.731 275.601 194.005C276.461 195.267 276.936 196.57 277.027 197.915C277.097 199.248 276.786 200.542 276.095 201.798ZM272.214 201.178C272.815 200.087 272.888 199.005 272.432 197.934C271.968 196.829 270.972 195.815 269.444 194.89C267.916 193.965 266.59 193.574 265.466 193.717C264.333 193.827 263.466 194.428 262.865 195.519C262.479 196.219 262.336 196.942 262.435 197.687C262.533 198.433 262.855 199.163 263.4 199.878C263.956 200.571 264.717 201.21 265.682 201.794C266.667 202.39 267.591 202.757 268.453 202.895C269.296 203.021 270.04 202.936 270.685 202.64C271.33 202.345 271.84 201.857 272.214 201.178Z" fill="#CA5B5B"/>
</svg>
